<svg version="1.1" xmlns="http://www.w3.org/2000/svg" xmlns:xlink="http://www.w3.org/1999/xlink" width="1212" height="819"><defs><clipPath id="RKdEMCNuwvfs"><path fill="none" stroke="none" d=" M 0 0 L 1212 0 L 1212 819 L 0 819 L 0 0 Z"/></clipPath></defs><g transform="scale(1,1)" clip-path="url(#RKdEMCNuwvfs)"><g><rect fill="rgb(255,255,255)" stroke="none" x="0" y="0" width="1212" height="819" fill-opacity="1"/><path fill="none" stroke="rgb(0,0,0)" paint-order="fill stroke markers" d=" M 558.103417542563 401.99999999999994 C 558.103417542563 498.15466240218046 480.1546624021806 576.1034175425629 384.0000000000001 576.1034175425629 C 287.84533759781965 576.1034175425629 209.89658245743726 498.15466240218046 209.89658245743726 401.99999999999994 C 209.89658245743726 305.8453375978194 287.84533759781965 227.89658245743703 384.0000000000001 227.89658245743703 C 480.1546624021806 227.89658245743703 558.103417542563 305.8453375978194 558.103417542563 401.99999999999994 Z" stroke-opacity="0.6980392156862745" stroke-linecap="round" stroke-linejoin="round" stroke-miterlimit="10" stroke-width="2.5"/><text fill="rgb(0,0,0)" stroke="none" font-family="geogebra-sans-serif, sans-serif" font-size="16px" font-style="normal" font-weight="normal" text-decoration="normal" x="296" y="274" text-anchor="start" dominant-baseline="alphabetic" fill-opacity="1">c</text><text fill="none" stroke="rgb(255,255,255)" font-family="geogebra-sans-serif, sans-serif" font-size="16px" font-style="normal" font-weight="normal" text-decoration="normal" x="296" y="274" text-anchor="start" dominant-baseline="alphabetic" stroke-opacity="1" stroke-linejoin="bevel" stroke-miterlimit="10" stroke-width="3">c</text><text fill="rgb(0,0,0)" stroke="none" font-family="geogebra-sans-serif, sans-serif" font-size="16px" font-style="normal" font-weight="normal" text-decoration="normal" x="296" y="274" text-anchor="start" dominant-baseline="alphabetic" fill-opacity="1">c</text><path fill="none" stroke="rgb(0,0,0)" paint-order="fill stroke markers" d=" M 732.1034175425629 395.9999999999999 C 732.1034175425629 492.1546624021804 654.1546624021805 570.1034175425627 558 570.1034175425627 C 461.84533759781954 570.1034175425627 383.89658245743715 492.1546624021804 383.89658245743715 395.9999999999999 C 383.89658245743715 299.84533759781937 461.84533759781954 221.89658245743698 558 221.89658245743698 C 654.1546624021805 221.89658245743698 732.1034175425629 299.84533759781937 732.1034175425629 395.9999999999999 Z" stroke-opacity="0.6980392156862745" stroke-linecap="round" stroke-linejoin="round" stroke-miterlimit="10" stroke-width="2.5"/><text fill="rgb(0,0,0)" stroke="none" font-family="geogebra-sans-serif, sans-serif" font-size="16px" font-style="normal" font-weight="normal" text-decoration="normal" x="470" y="268" text-anchor="start" dominant-baseline="alphabetic" fill-opacity="1">d</text><text fill="none" stroke="rgb(255,255,255)" font-family="geogebra-sans-serif, sans-serif" font-size="16px" font-style="normal" font-weight="normal" text-decoration="normal" x="470" y="268" text-anchor="start" dominant-baseline="alphabetic" stroke-opacity="1" stroke-linejoin="bevel" stroke-miterlimit="10" stroke-width="3">d</text><text fill="rgb(0,0,0)" stroke="none" font-family="geogebra-sans-serif, sans-serif" font-size="16px" font-style="normal" font-weight="normal" text-decoration="normal" x="470" y="268" text-anchor="start" dominant-baseline="alphabetic" fill-opacity="1">d</text><path fill="rgb(77,77,255)" stroke="none" paint-order="stroke fill markers" d=" M 389.0000000000001 401.99999999999994 C 389.0000000000001 404.7614237491539 386.76142374915406 406.99999999999994 384.0000000000001 406.99999999999994 C 381.23857625084617 406.99999999999994 379.0000000000001 404.7614237491539 379.0000000000001 401.99999999999994 C 379.0000000000001 399.238576250846 381.23857625084617 396.99999999999994 384.0000000000001 396.99999999999994 C 386.76142374915406 396.99999999999994 389.0000000000001 399.238576250846 389.0000000000001 401.99999999999994 Z" fill-opacity="1"/><path fill="none" stroke="rgb(0,0,0)" paint-order="fill stroke markers" d=" M 389.0000000000001 401.99999999999994 C 389.0000000000001 404.7614237491539 386.76142374915406 406.99999999999994 384.0000000000001 406.99999999999994 C 381.23857625084617 406.99999999999994 379.0000000000001 404.7614237491539 379.0000000000001 401.99999999999994 C 379.0000000000001 399.238576250846 381.23857625084617 396.99999999999994 384.0000000000001 396.99999999999994 C 386.76142374915406 396.99999999999994 389.0000000000001 399.238576250846 389.0000000000001 401.99999999999994 Z" stroke-opacity="1" stroke-linecap="round" stroke-linejoin="round" stroke-miterlimit="10"/><text fill="rgb(77,77,255)" stroke="none" font-family="geogebra-sans-serif, sans-serif" font-size="16px" font-style="normal" font-weight="normal" text-decoration="normal" x="388" y="392" text-anchor="start" dominant-baseline="alphabetic" fill-opacity="1">A</text><text fill="none" stroke="rgb(255,255,255)" font-family="geogebra-sans-serif, sans-serif" font-size="16px" font-style="normal" font-weight="normal" text-decoration="normal" x="388" y="392" text-anchor="start" dominant-baseline="alphabetic" stroke-opacity="1" stroke-linejoin="bevel" stroke-miterlimit="10" stroke-width="3">A</text><text fill="rgb(77,77,255)" stroke="none" font-family="geogebra-sans-serif, sans-serif" font-size="16px" font-style="normal" font-weight="normal" text-decoration="normal" x="388" y="392" text-anchor="start" dominant-baseline="alphabetic" fill-opacity="1">A</text><path fill="rgb(77,77,255)" stroke="none" paint-order="stroke fill markers" d=" M 563 395.9999999999999 C 563 398.76142374915383 560.761423749154 400.9999999999999 558 400.9999999999999 C 555.238576250846 400.9999999999999 553 398.76142374915383 553 395.9999999999999 C 553 393.23857625084594 555.238576250846 390.9999999999999 558 390.9999999999999 C 560.761423749154 390.9999999999999 563 393.23857625084594 563 395.9999999999999 Z" fill-opacity="1"/><path fill="none" stroke="rgb(0,0,0)" paint-order="fill stroke markers" d=" M 563 395.9999999999999 C 563 398.76142374915383 560.761423749154 400.9999999999999 558 400.9999999999999 C 555.238576250846 400.9999999999999 553 398.76142374915383 553 395.9999999999999 C 553 393.23857625084594 555.238576250846 390.9999999999999 558 390.9999999999999 C 560.761423749154 390.9999999999999 563 393.23857625084594 563 395.9999999999999 Z" stroke-opacity="1" stroke-linecap="round" stroke-linejoin="round" stroke-miterlimit="10"/><text fill="rgb(77,77,255)" stroke="none" font-family="geogebra-sans-serif, sans-serif" font-size="16px" font-style="normal" font-weight="normal" text-decoration="normal" x="562" y="386" text-anchor="start" dominant-baseline="alphabetic" fill-opacity="1">B</text><text fill="none" stroke="rgb(255,255,255)" font-family="geogebra-sans-serif, sans-serif" font-size="16px" font-style="normal" font-weight="normal" text-decoration="normal" x="562" y="386" text-anchor="start" dominant-baseline="alphabetic" stroke-opacity="1" stroke-linejoin="bevel" stroke-miterlimit="10" stroke-width="3">B</text><text fill="rgb(77,77,255)" stroke="none" font-family="geogebra-sans-serif, sans-serif" font-size="16px" font-style="normal" font-weight="normal" text-decoration="normal" x="562" y="386" text-anchor="start" dominant-baseline="alphabetic" fill-opacity="1">B</text></g></g></svg>